<svg xmlns="http://www.w3.org/2000/svg" viewBox="0 0 180 180">
  <rect width="180" height="180" rx="40" fill="#fff"/>
  <g fill="#E98952" transform="translate(90 90)">
    <rect x="-8" y="-63" width="16" height="48" rx="8"/>
    <rect x="-8" y="15" width="16" height="48" rx="8"/>
    <rect x="-63" y="-8" width="48" height="16" rx="8"/>
    <rect x="15" y="-8" width="48" height="16" rx="8"/>
    <rect x="-8" y="-63" width="16" height="48" rx="8" transform="rotate(45)"/>
    <rect x="-8" y="15" width="16" height="48" rx="8" transform="rotate(45)"/>
    <rect x="-8" y="-63" width="16" height="48" rx="8" transform="rotate(90)"/>
    <rect x="-8" y="15" width="16" height="48" rx="8" transform="rotate(90)"/>
    <rect x="-8" y="-63" width="16" height="48" rx="8" transform="rotate(135)"/>
    <rect x="-8" y="15" width="16" height="48" rx="8" transform="rotate(135)"/>
    <circle r="22"/>
  </g>
</svg>
